<svg xmlns="http://www.w3.org/2000/svg" xmlns:xlink="http://www.w3.org/1999/xlink" width="500" zoomAndPan="magnify" viewBox="0 0 375 374.999991" height="500" preserveAspectRatio="xMidYMid meet" version="1.0"><defs><clipPath id="9924c4b7d1"><path d="M 4.628906 4 L 375 4 L 375 375 L 4.628906 375 Z M 4.628906 4 " clip-rule="nonzero"/></clipPath><clipPath id="ce1c6dd468"><path d="M 189.8125 375 C 140.371094 375 93.816406 355.757812 58.882812 320.746094 C 23.871094 285.8125 4.628906 239.257812 4.628906 189.8125 C 4.628906 140.371094 23.871094 93.816406 58.882812 58.882812 C 93.816406 23.871094 140.371094 4.628906 189.8125 4.628906 C 239.257812 4.628906 285.8125 23.871094 320.746094 58.882812 C 355.757812 93.890625 375 140.371094 375 189.8125 C 375 239.257812 355.757812 285.8125 320.746094 320.746094 C 285.8125 355.757812 239.257812 375 189.8125 375 Z M 189.8125 15.730469 C 143.332031 15.730469 99.589844 33.863281 66.726562 66.726562 C 33.863281 99.589844 15.730469 143.332031 15.730469 189.8125 C 15.730469 236.296875 33.863281 280.039062 66.726562 312.902344 C 99.589844 345.765625 143.332031 363.898438 189.8125 363.898438 C 236.296875 363.898438 280.039062 345.765625 312.902344 312.902344 C 345.765625 280.039062 363.898438 236.296875 363.898438 189.8125 C 363.898438 143.332031 345.765625 99.589844 312.902344 66.726562 C 280.039062 33.863281 236.296875 15.730469 189.8125 15.730469 Z M 189.8125 15.730469 " clip-rule="nonzero"/></clipPath><clipPath id="ff03face46"><path d="M 34.34375 34.34375 L 345.59375 34.34375 L 345.59375 345.59375 L 34.34375 345.59375 Z M 34.34375 34.34375 " clip-rule="nonzero"/></clipPath></defs><rect x="-37.5" width="450" fill="#ffffff" y="-37.499999" height="449.999989" fill-opacity="1"/><rect x="-37.5" width="450" fill="#ffffff" y="-37.499999" height="449.999989" fill-opacity="1"/><rect x="-37.5" width="450" fill="#ffffff" y="-37.499999" height="449.999989" fill-opacity="1"/><g clip-path="url(#9924c4b7d1)"><g clip-path="url(#ce1c6dd468)"><path fill="#38b6ff" d="M 4.628906 4.628906 L 374.703125 4.628906 L 374.703125 374.703125 L 4.628906 374.703125 Z M 4.628906 4.628906 " fill-opacity="1" fill-rule="nonzero"/></g></g><g clip-path="url(#ff03face46)"><path fill="#38b6ff" d="M 189.839844 34.34375 C 142.167969 34.386719 97.140625 56.28125 67.667969 93.753906 L 247.804688 45.488281 C 229.417969 38.121094 209.789062 34.34375 189.980469 34.34375 C 189.9375 34.34375 189.886719 34.34375 189.839844 34.34375 Z M 266.019531 54.183594 L 56.242188 110.394531 C 53.210938 115.492188 50.472656 120.757812 48.039062 126.167969 L 281.007812 63.746094 C 276.199219 60.269531 271.191406 57.082031 266.019531 54.183594 Z M 293.683594 73.929688 L 42.15625 141.320312 C 40.570312 146.140625 39.222656 151.03125 38.117188 155.980469 L 304.515625 84.605469 C 301.078125 80.871094 297.460938 77.308594 293.683594 73.929688 Z M 313.804688 95.691406 L 35.613281 170.230469 C 35.027344 174.84375 34.644531 179.472656 34.46875 184.117188 L 321.734375 107.144531 C 319.261719 103.210938 316.617188 99.390625 313.804688 95.691406 Z M 328.445312 118.921875 L 34.550781 197.675781 C 34.765625 202.109375 35.179688 206.527344 35.777344 210.921875 L 334.007812 131.011719 C 332.328125 126.902344 330.472656 122.871094 328.445312 118.921875 Z M 338.472656 143.394531 L 38.097656 223.875 C 39.050781 228.148438 40.183594 232.375 41.492188 236.542969 L 341.863281 156.0625 C 340.917969 151.789062 339.785156 147.5625 338.472656 143.394531 Z M 344.191406 169.015625 L 45.960938 248.925781 C 47.640625 253.035156 49.496094 257.066406 51.523438 261.015625 L 345.417969 182.261719 C 345.195312 177.835938 344.789062 173.410156 344.191406 169.015625 Z M 345.5 195.820312 L 58.230469 272.792969 C 60.699219 276.726562 63.351562 280.550781 66.167969 284.246094 L 344.347656 209.707031 C 344.941406 205.09375 345.328125 200.464844 345.5 195.820312 Z M 341.851562 223.957031 L 75.453125 295.332031 C 78.890625 299.066406 82.5 302.628906 86.285156 306.007812 L 337.804688 238.609375 C 339.394531 233.800781 340.746094 228.90625 341.851562 223.957031 Z M 331.929688 253.769531 L 98.953125 316.191406 C 103.765625 319.660156 108.769531 322.855469 113.949219 325.753906 L 323.726562 269.542969 C 326.757812 264.449219 329.496094 259.179688 331.929688 253.769531 Z M 312.300781 286.183594 L 132.164062 334.453125 C 150.550781 341.816406 170.171875 345.59375 189.980469 345.59375 C 237.707031 345.59375 282.796875 323.695312 312.300781 286.183594 Z M 312.300781 286.183594 " fill-opacity="1" fill-rule="nonzero"/></g><path fill="#00025d" d="M 87 62.480469 C 87 62.480469 86.738281 71.816406 87.0625 72.207031 C 87.386719 72.601562 88.632812 72.992188 88.761719 73.96875 C 88.890625 74.949219 86.347656 81.539062 87.261719 82.261719 C 88.175781 82.976562 89.871094 82.65625 89.871094 82.65625 C 89.871094 82.65625 90.195312 86.507812 90.523438 86.960938 C 90.847656 87.417969 92.613281 87.9375 92.613281 87.9375 C 92.613281 87.9375 91.570312 90.546875 92.9375 91.332031 C 94.308594 92.117188 95.675781 92.378906 95.675781 92.378906 C 95.675781 92.378906 97.378906 97.402344 98.878906 97.402344 C 100.378906 97.402344 100.769531 97.402344 100.769531 97.402344 C 100.769531 97.402344 100.183594 102.886719 100.054688 106.539062 C 99.921875 110.195312 98.878906 114.175781 100.117188 119.460938 C 100.117188 119.460938 96.59375 126.445312 96.460938 128.277344 C 96.332031 130.109375 96.65625 135.585938 96.65625 135.585938 C 96.65625 135.585938 89.996094 131.015625 87.316406 128.601562 C 84.640625 126.1875 83.269531 122.402344 83.269531 122.402344 C 83.269531 122.402344 83.402344 120.117188 81.507812 117.117188 C 81.507812 117.117188 81.570312 115.023438 80.070312 112.738281 C 78.570312 110.457031 77.332031 108.953125 75.957031 108.363281 C 74.585938 107.777344 72.757812 106.601562 72.234375 106.472656 C 71.710938 106.339844 70.472656 107.710938 70.996094 108.949219 C 70.996094 108.949219 69.425781 108.625 68.710938 109.925781 C 67.996094 111.234375 68.1875 113.648438 68.1875 113.648438 C 68.1875 113.648438 64.664062 114.757812 64.726562 115.800781 C 64.789062 116.847656 65.835938 118.21875 65.835938 118.21875 C 65.835938 118.21875 64.464844 120.441406 66.097656 122.726562 C 66.097656 122.726562 64.660156 124.878906 65.902344 126.117188 C 67.140625 127.355469 69.558594 128.269531 69.558594 128.269531 C 69.558594 128.269531 73.542969 130.363281 75.824219 132.972656 C 78.109375 135.578125 89.210938 150.269531 91.035156 152.617188 C 92.863281 154.96875 100.371094 159.671875 101.933594 161.039062 C 103.503906 162.410156 106.632812 161.753906 108.917969 159.730469 C 111.203125 157.710938 115.117188 154.1875 114.855469 147.070312 C 114.855469 147.070312 118.054688 139.886719 117.925781 134.601562 C 117.925781 134.601562 127.980469 144.132812 133.464844 154.054688 C 138.949219 163.976562 143.515625 175.078125 148.347656 178.992188 C 148.347656 178.992188 136.855469 182.125 127.324219 187.738281 C 117.796875 193.351562 104.742188 200.140625 102.125 202.882812 C 99.519531 205.621094 88.417969 212.546875 89.464844 216.722656 C 90.511719 220.898438 105.265625 245.3125 106.957031 247.796875 C 108.652344 250.28125 116.09375 265.289062 120.402344 269.472656 C 124.710938 273.648438 130.195312 288.535156 131.765625 292.839844 C 131.765625 292.839844 126.542969 308.25 123.019531 312.6875 C 119.496094 317.125 111.394531 320.386719 111.265625 321.695312 C 111.132812 323 111.003906 326.261719 114.65625 327.308594 C 118.3125 328.355469 133.980469 328.09375 137.242188 323.917969 C 140.503906 319.738281 151.210938 311.515625 154.734375 309.816406 C 158.257812 308.117188 158.386719 306.164062 157.867188 304.332031 C 157.34375 302.503906 153.164062 293.101562 149.25 289.839844 C 149.25 289.839844 142.71875 282.402344 138.152344 269.601562 C 133.582031 256.8125 131.488281 246.105469 130.058594 241.535156 C 128.621094 236.964844 123.136719 227.828125 122.621094 225.472656 C 122.621094 225.472656 132.148438 224.035156 139.464844 224.429688 C 146.773438 224.820312 169.886719 219.46875 169.886719 219.46875 C 169.886719 219.46875 183.59375 238.136719 191.691406 245.710938 C 199.789062 253.289062 207.359375 260.855469 209.183594 263.464844 C 211.015625 266.074219 212.316406 269.210938 224.589844 271.035156 C 224.589844 271.035156 248.089844 281.21875 253.835938 283.566406 C 259.582031 285.917969 281.773438 295.320312 290.132812 305.496094 C 290.132812 305.496094 293.761719 311.808594 297.082031 314.210938 C 300.40625 316.613281 303.730469 321.78125 304.652344 324.183594 C 305.570312 326.585938 305.945312 333.785156 309.269531 334.335938 C 312.59375 334.890625 315.542969 328.242188 315.175781 321.96875 C 314.808594 315.695312 307.609375 302.949219 307.054688 298.152344 C 306.5 293.351562 306.039062 284.394531 302.988281 282.363281 C 299.945312 280.335938 289.230469 285.503906 289.230469 285.503906 C 289.230469 285.503906 274.460938 277.746094 262.277344 266.757812 C 262.277344 266.757812 257.015625 260.015625 253.601562 258.175781 C 250.183594 256.324219 233.933594 251.527344 231.90625 249.496094 C 229.875 247.46875 217.28125 229.253906 215.714844 223.246094 C 214.144531 217.238281 205.136719 209.144531 204.746094 206.015625 C 204.355469 202.882812 201.746094 188.128906 200.308594 182.90625 C 198.871094 177.683594 195.476562 171.15625 195.476562 171.15625 C 195.476562 171.15625 196.785156 170.5 196.128906 169.71875 C 195.476562 168.933594 191.691406 167.886719 191.691406 165.148438 C 191.691406 162.410156 190.382812 152.226562 189.214844 149.480469 C 188.039062 146.742188 189.082031 146.480469 187.90625 143.210938 C 186.730469 139.949219 170.929688 96.605469 170.929688 96.605469 L 180.722656 98.695312 L 181.898438 94.648438 C 181.898438 94.648438 188.5625 93.867188 193 92.296875 C 197.4375 90.726562 199.527344 88.511719 201.222656 90.859375 C 202.921875 93.210938 209.707031 102.480469 212.84375 104.695312 C 215.976562 106.917969 225.636719 121.671875 227.46875 128.195312 C 229.296875 134.726562 228.25 140.988281 230.992188 143.082031 C 233.730469 145.171875 236.605469 147.78125 237.652344 148.957031 C 238.695312 150.132812 239.875 153.003906 241.175781 153.527344 C 242.480469 154.050781 243.265625 150.65625 243.265625 150.65625 C 243.265625 150.65625 245.875 151.046875 246.921875 149.742188 C 246.921875 149.742188 249.789062 148.695312 249.527344 147.386719 C 249.527344 147.386719 251.75 145.425781 250.445312 142.6875 C 250.445312 142.6875 248.089844 135.25 247.441406 133.941406 C 246.789062 132.636719 244.574219 128.851562 240.257812 124.933594 C 240.257812 124.933594 234.515625 113.441406 228.375 100.390625 C 222.238281 87.335938 212.839844 77.28125 210.097656 75.582031 C 207.359375 73.882812 184.507812 70.492188 184.507812 70.492188 C 184.507812 70.492188 184.117188 69.644531 183.59375 69.511719 C 183.070312 69.382812 161.855469 71.605469 160.15625 71.210938 C 158.457031 70.820312 149.839844 70.367188 149.058594 70.890625 C 148.273438 71.410156 144.289062 76.3125 143.273438 76.03125 C 142.257812 75.757812 138.289062 75.664062 137 76.125 C 135.703125 76.585938 131 78.800781 131 78.800781 C 131 78.800781 126.933594 76.863281 124.902344 76.679688 L 123.148438 73.539062 C 123.148438 73.539062 123.242188 57.292969 122.039062 53.230469 C 120.839844 49.164062 113.636719 43.902344 101.914062 46.027344 C 90.191406 48.148438 84.371094 57.011719 84.925781 58.300781 C 85.507812 59.609375 87 62.480469 87 62.480469 Z M 87 62.480469 " fill-opacity="1" fill-rule="nonzero"/><path fill="#ffffff" d="M 143.925781 222.089844 C 137.660156 201.980469 128.128906 190.75 128.128906 190.75 C 140.921875 182.265625 160.765625 178.480469 160.765625 178.480469 C 160.765625 178.480469 148.496094 184.621094 144.183594 187.488281 L 148.230469 194.148438 L 138.175781 191.671875 C 138.183594 191.667969 140.789062 209.683594 143.925781 222.089844 Z M 143.925781 222.089844 " fill-opacity="1" fill-rule="nonzero"/><path fill="#ffffff" d="M 213.640625 225.136719 C 202.285156 233.449219 189.488281 229.65625 189.488281 229.65625 L 194.972656 228.480469 C 185.050781 224.957031 181.394531 218.820312 181.394531 218.820312 C 181.394531 218.820312 192.234375 213.335938 196.804688 205.113281 C 201.371094 196.890625 197.0625 180.175781 197.0625 180.175781 C 197.0625 180.175781 201.503906 210.335938 165.726562 215.820312 L 172.910156 217.648438 C 172.910156 217.648438 185.179688 235.402344 190.402344 239.457031 C 190.402344 239.449219 206.59375 236.289062 213.640625 225.136719 Z M 213.640625 225.136719 " fill-opacity="1" fill-rule="nonzero"/><path fill="#ffffff" d="M 154.191406 306.933594 C 143.667969 311.921875 136.558594 320.597656 133.238281 322.722656 C 129.914062 324.84375 114.871094 325.03125 114.871094 325.03125 C 114.871094 325.03125 113.855469 321.988281 114.59375 321.433594 C 115.335938 320.878906 121.796875 317.742188 124.839844 315.246094 C 127.886719 312.753906 128.90625 300.472656 132.410156 299.550781 C 135.921875 298.628906 142.195312 302.78125 145.707031 301.582031 C 149.21875 300.378906 150.046875 294.199219 150.046875 294.199219 C 150.046875 294.199219 157.515625 305.179688 154.191406 306.933594 Z M 154.191406 306.933594 " fill-opacity="1" fill-rule="nonzero"/><path fill="#ffffff" d="M 290.824219 288.097656 C 290.824219 288.097656 296.457031 291.328125 297.101562 296.222656 C 297.746094 301.113281 293.589844 305.265625 294.238281 306.46875 C 294.882812 307.667969 304.484375 318.46875 305.957031 321.886719 C 307.433594 325.304688 307.808594 331.398438 308.820312 331.671875 C 309.835938 331.945312 313.160156 326.59375 312.605469 322.628906 C 312.050781 318.664062 305.222656 302.136719 304.851562 298.71875 C 304.484375 295.300781 303.09375 286.441406 302.265625 285.515625 C 301.4375 284.59375 294.609375 286.253906 290.824219 288.097656 Z M 290.824219 288.097656 " fill-opacity="1" fill-rule="nonzero"/><path fill="#ffffff" d="M 119.121094 197.414062 C 119.121094 197.414062 106.851562 202.765625 105.414062 204.335938 C 103.976562 205.902344 93.792969 212.949219 94.054688 215.304688 C 94.3125 217.65625 112.722656 250.164062 112.722656 250.164062 C 112.722656 250.164062 101.230469 220.265625 100.96875 217.785156 C 100.707031 215.308594 107.5 208.777344 107.5 208.777344 L 103.84375 208.648438 Z M 119.121094 197.414062 " fill-opacity="1" fill-rule="nonzero"/><path fill="#ffffff" d="M 195.101562 242.0625 C 195.101562 242.0625 210.511719 258.910156 212.726562 261.253906 C 214.949219 263.609375 219.257812 267.132812 225.386719 267.917969 C 231.527344 268.699219 271.996094 288.414062 271.996094 288.414062 C 271.996094 288.414062 233.351562 266.871094 229.042969 264.785156 C 224.734375 262.695312 217.550781 259.953125 214.941406 255.910156 C 212.339844 251.855469 195.101562 242.0625 195.101562 242.0625 Z M 195.101562 242.0625 " fill-opacity="1" fill-rule="nonzero"/><path fill="#ffffff" d="M 162.683594 159.871094 C 160.835938 147.867188 154.558594 137.160156 154.558594 137.160156 C 156.589844 151.566406 150.589844 177.410156 150.589844 177.410156 C 150.589844 177.410156 161.941406 171.222656 167.390625 170.488281 C 172.835938 169.75 191.578125 170.394531 191.578125 170.394531 C 191.578125 170.394531 189.457031 168.921875 188.253906 167.257812 C 187.054688 165.597656 186.320312 150.550781 185.671875 149.535156 C 185.023438 148.519531 185.398438 146.210938 185.117188 144.734375 C 184.84375 143.261719 167.296875 97.015625 167.296875 97.015625 C 167.296875 97.015625 171.546875 127.195312 171.734375 139.929688 L 166.933594 129.589844 C 166.929688 129.589844 167.300781 150.449219 162.683594 159.871094 Z M 162.683594 159.871094 " fill-opacity="1" fill-rule="nonzero"/><path fill="#ffffff" d="M 179.117188 95.433594 C 184.75 85.09375 184.472656 72.726562 184.472656 72.726562 C 174.40625 72.726562 161.390625 74.574219 161.390625 74.574219 C 161.390625 74.574219 152.898438 73.464844 150.957031 73.832031 C 149.019531 74.199219 147.078125 78.078125 145.875 78.914062 C 144.675781 79.742188 140.429688 78.726562 138.582031 78.820312 C 136.730469 78.914062 132.859375 81.402344 132.859375 81.402344 C 132.859375 81.402344 137.292969 80.847656 139.226562 81.308594 C 141.164062 81.769531 146.242188 83.800781 147.90625 82.417969 C 149.566406 81.035156 151.597656 77.429688 153.625 77.429688 C 155.65625 77.429688 158.980469 80.109375 159.996094 79.921875 C 161.007812 79.734375 170.609375 78.257812 178.183594 78.167969 L 177.535156 82.597656 L 180.859375 80.195312 C 180.871094 80.203125 180.59375 91.09375 179.117188 95.433594 Z M 179.117188 95.433594 " fill-opacity="1" fill-rule="nonzero"/><path fill="#ffffff" d="M 115.660156 134.351562 C 115.660156 134.351562 103 133.046875 98.167969 128.9375 C 98.167969 128.9375 100.714844 122.34375 103 119.800781 C 103 119.800781 102.28125 107.722656 103 103.085938 C 103 103.085938 104.367188 116.921875 106.199219 120.644531 L 102.605469 128.023438 C 102.605469 128.015625 108.738281 132.589844 115.660156 134.351562 Z M 115.660156 134.351562 " fill-opacity="1" fill-rule="nonzero"/></svg>